<?xml version="1.0" standalone="no"?>
<!DOCTYPE svg PUBLIC "-//W3C//DTD SVG 20010904//EN"
 "http://www.w3.org/TR/2001/REC-SVG-20010904/DTD/svg10.dtd">
<svg version="1.0" xmlns="http://www.w3.org/2000/svg"
 width="512.000000pt" height="512.000000pt" viewBox="0 0 512.000000 512.000000"
 preserveAspectRatio="xMidYMid meet">
<metadata>
Created by potrace 1.14, written by Peter Selinger 2001-2017
</metadata>
<g transform="translate(0.000000,512.000000) scale(0.100000,-0.100000)"
fill="#000000" stroke="none">
<path d="M0 2560 l0 -2560 2560 0 2560 0 0 2560 0 2560 -2560 0 -2560 0 0
-2560z m2594 748 c7 -13 30 -77 51 -143 21 -66 49 -157 64 -202 l27 -82 13 47
c7 26 19 70 26 97 8 28 28 102 46 165 17 63 36 121 41 128 8 9 72 12 258 12
223 0 248 -2 262 -17 8 -10 32 -72 53 -138 52 -166 77 -238 86 -249 8 -9 11 0
29 94 10 50 17 85 49 234 6 27 16 55 22 62 9 11 59 14 234 14 252 0 245 2 252
-78 4 -38 1 -53 -17 -74 l-21 -28 -153 0 -153 0 -11 -52 c-6 -29 -15 -75 -21
-103 -6 -27 -15 -66 -20 -85 -10 -37 -26 -104 -62 -255 -11 -49 -28 -98 -36
-107 -20 -22 -120 -25 -148 -4 -12 8 -52 116 -116 307 l-97 294 -124 3 -124 3
-11 -48 c-6 -26 -36 -136 -68 -243 -31 -107 -63 -217 -71 -245 -18 -68 -41
-85 -118 -85 -33 0 -66 4 -72 8 -16 11 -38 63 -79 197 -73 234 -116 370 -126
393 l-9 23 -552 -3 c-606 -3 -576 0 -635 -65 -46 -52 -65 -137 -47 -207 27
-104 76 -174 239 -346 141 -148 171 -219 122 -291 -45 -68 -130 -88 -369 -89
-81 0 -158 4 -172 10 -24 9 -26 14 -26 72 0 35 5 70 10 78 7 12 44 16 185 20
l176 5 -93 95 c-195 198 -268 337 -268 512 0 182 84 315 233 368 49 18 91 19
689 20 l638 0 14 -22z m-1644 -178 c0 -5 -4 -10 -10 -10 -5 0 -10 5 -10 10 0
6 5 10 10 10 6 0 10 -4 10 -10z m1343 -180 c12 -17 17 -18 44 -8 25 9 35 9 47
-1 13 -11 13 -15 -4 -34 -19 -20 -20 -20 -41 -1 l-22 19 7 -35 c3 -19 27 -100
52 -180 25 -80 53 -167 61 -195 9 -27 26 -81 38 -120 13 -38 29 -92 38 -120 8
-27 31 -104 52 -170 20 -66 39 -126 41 -133 3 -10 36 -12 141 -10 l138 3 18
70 c24 90 43 167 57 230 6 28 14 57 17 65 4 8 12 38 19 65 44 177 42 175 134
175 51 0 71 -4 83 -17 13 -16 47 -117 104 -308 23 -78 37 -124 63 -207 l25
-78 142 0 c133 0 143 1 143 19 0 10 36 162 80 337 44 176 87 346 94 379 31
134 59 231 72 253 12 19 23 22 73 22 44 0 62 -4 75 -19 26 -28 31 -91 12 -132
-8 -19 -63 -221 -120 -449 -58 -228 -114 -447 -124 -487 -10 -39 -24 -78 -31
-87 -12 -14 -48 -16 -275 -16 -143 0 -266 4 -273 8 -14 9 -34 61 -63 162 -12
41 -25 86 -30 100 -4 14 -16 51 -26 82 -10 32 -20 55 -23 52 -4 -3 -11 -31
-18 -62 -6 -31 -18 -84 -27 -117 -8 -33 -21 -87 -29 -120 -26 -115 2 -105
-306 -105 -243 0 -269 2 -283 18 -15 17 -23 40 -68 192 -12 41 -33 107 -45
145 -13 39 -33 104 -45 145 -12 41 -32 107 -45 145 -12 39 -37 117 -55 175
-17 58 -38 123 -45 145 l-13 40 -153 3 c-85 2 -169 0 -188 -3 l-34 -7 80 -76
c186 -179 262 -313 290 -509 6 -45 -24 -203 -39 -203 -4 0 -8 -6 -8 -14 0 -32
-93 -116 -169 -154 l-76 -37 -408 -3 c-300 -2 -413 0 -423 9 -18 15 -20 144
-1 156 6 4 183 10 392 13 377 5 380 5 429 29 27 14 61 41 77 64 26 35 29 48
29 113 0 132 -55 227 -238 408 -60 60 -119 128 -131 151 -37 74 -22 167 32
197 72 42 105 45 389 47 265 1 277 0 291 -19z m-1455 -148 c9 -7 7 -13 -9 -28
-20 -18 -21 -18 -35 0 -7 10 -11 23 -8 27 7 11 35 11 52 1z m1362 -622 c0 -11
-7 -20 -15 -20 -8 0 -15 9 -15 20 0 11 7 20 15 20 8 0 15 -9 15 -20z m85 -21
c10 -15 -1 -23 -20 -15 -9 3 -13 10 -10 16 8 13 22 13 30 -1z m-5 -129 c0 -5
-9 -10 -20 -10 -11 0 -20 5 -20 10 0 6 9 10 20 10 11 0 20 -4 20 -10z m1434
-703 c-8 -21 -18 -21 -34 -2 -10 12 -10 18 0 31 11 13 15 13 27 1 8 -7 11 -21
7 -30z m-354 -368 c0 -10 -7 -19 -15 -19 -15 0 -21 31 -9 43 11 10 24 -3 24
-24z"/>
<path d="M1297 3275 c-142 -39 -225 -173 -215 -344 9 -146 87 -280 266 -457
98 -97 113 -116 110 -140 -5 -42 -52 -52 -241 -53 -158 -1 -158 -1 -155 -23 3
-22 6 -23 148 -26 179 -4 240 3 282 31 39 26 48 69 24 115 -8 16 -62 78 -121
138 -173 179 -248 308 -248 429 0 115 63 219 158 262 36 16 80 18 433 21 l392
3 0 30 0 29 -392 -1 c-293 -1 -405 -4 -441 -14z"/>
<path d="M2190 3260 l0 -30 154 0 155 0 46 -147 c26 -82 70 -221 98 -311 l51
-163 45 3 45 3 17 60 c65 229 142 495 151 523 l10 32 166 -2 167 -3 61 -180
c33 -99 79 -237 103 -307 l43 -128 34 0 c27 0 35 5 39 23 3 12 16 67 29 122
13 55 41 172 61 260 20 88 40 171 44 185 l8 25 161 3 162 2 0 30 0 30 -187 -2
-187 -3 -62 -286 c-34 -157 -64 -292 -67 -300 -6 -18 3 -43 -109 304 l-92 287
-216 -2 -215 -3 -11 -45 c-13 -50 -116 -424 -140 -510 l-16 -55 -13 40 c-7 22
-37 114 -65 205 -29 91 -65 206 -81 255 -16 50 -29 96 -29 103 0 9 -43 12
-180 12 l-180 0 0 -30z"/>
<path d="M1725 2915 c-5 -2 -21 -6 -35 -9 -65 -14 -89 -80 -51 -142 10 -17 70
-82 133 -145 63 -63 132 -141 153 -174 83 -126 110 -239 81 -338 -21 -73 -62
-119 -142 -158 l-64 -32 -368 -1 -367 -1 0 -30 0 -30 348 -3 c292 -2 358 0
409 14 162 42 245 134 256 284 12 171 -72 334 -268 523 -101 99 -123 127 -114
150 11 29 65 37 250 37 l184 0 0 30 0 30 -197 -1 c-109 0 -202 -2 -208 -4z"/>
<path d="M2193 2888 c2 -18 35 -127 71 -243 37 -115 86 -273 110 -350 25 -77
66 -209 92 -292 l47 -153 234 0 233 0 5 23 c18 80 137 555 142 567 5 12 7 11
10 -5 5 -21 66 -231 132 -450 l39 -130 233 -3 234 -2 123 492 c68 271 127 501
133 510 5 10 9 29 9 43 0 21 -5 25 -30 25 -16 0 -30 -1 -30 -2 -4 -25 -248
-990 -252 -993 -3 -3 -88 -6 -189 -6 l-184 0 -12 38 c-6 21 -47 155 -91 298
l-79 260 -43 0 -43 0 -73 -280 c-40 -154 -73 -288 -74 -297 0 -12 -8 -18 -22
-19 -64 -1 -353 3 -356 6 -2 1 -44 133 -93 291 -49 159 -110 354 -135 434 -91
290 -82 270 -116 270 -28 0 -30 -2 -25 -32z"/>
</g>
</svg>
